<!-- Created with Inkscape (http://www.inkscape.org/) -->
<svg xmlns:rdf="http://www.w3.org/1999/02/22-rdf-syntax-ns#" xmlns="http://www.w3.org/2000/svg" height="62" width="62" version="1.1" xmlns:cc="http://creativecommons.org/ns#" xmlns:dc="http://purl.org/dc/elements/1.1/" viewBox="2600 0 2051.8976 2245.5482">
 <metadata>
  <rdf:RDF>
   <cc:Work rdf:about="">
    <dc:format>image/svg+xml</dc:format>
    <dc:type rdf:resource="http://purl.org/dc/dcmitype/StillImage"/>
    <dc:title>Embleem De Jonge Onderzoekers Amersfoort</dc:title>
   </cc:Work>
  </rdf:RDF>
 </metadata>
 <title>Embleem De Jonge Onderzoekers Amersfoort</title>
 <path style="direction:ltr;enable-background:accumulate;baseline-shift:baseline;block-progression:tb;text-indent:0;color:#000000;text-transform:none;text-align:start;" fill="#FFF" d="m3626,36.286c-121.73,0-243.08,20.033-358.36,59.152-115.27,39.119-223.76,97.087-320.34,171.18-96.581,74.091-180.67,163.85-248.3,265.06-67.636,101.21-118.4,213.24-149.91,330.82-31.509,117.58-43.566,239.98-35.604,361.45,7.9614,121.47,35.896,241.26,82.482,353.73s111.54,216.92,191.8,308.44c80.266,91.526,175.35,169.55,280.78,230.42l3.2208,1.8582,3.3136,1.662c90.71,45.355,174.38,75.624,256.83,85.93,82.447,10.306,167.83-2.0166,237.72-47.445,139.78-90.857,180.24-264.21,180.24-479.62v-991.1a123.89,123.89,0,1,0,-247.76,0v991.02c0,181-42.124,255.4-67.513,271.9-12.695,8.2516-30.542,14.511-71.973,9.332-40.785-5.098-100.42-23.898-173.3-59.998-80.587-46.98-153.79-107.27-215.29-177.39-62.289-71.027-113.03-152.63-149.18-239.91-36.152-87.279-57.97-180.86-64.148-275.12-6.178-94.264,3.236-189.88,27.687-281.12,24.451-91.241,64.116-178.75,116.6-257.28,52.484-78.534,118.17-148.65,193.12-206.14,74.948-57.496,159.69-102.78,249.15-133.14,89.459-30.359,184.26-46.01,278.73-46.01,94.474,0,189.28,15.651,278.74,46.01,89.459,30.359,174.2,75.641,249.15,133.14,74.948,57.496,140.63,127.61,193.11,206.14,52.484,78.534,92.149,166.04,116.6,257.28,24.451,91.241,33.865,186.86,27.686,281.12-6.178,94.264-27.995,187.84-64.148,275.12-36.153,87.279-86.89,168.88-149.18,239.91-62.289,71.027-136.57,131.98-218.39,179.22a123.89,123.89,0,1,0,123.88,214.56c105.43-60.868,200.51-138.9,280.78-230.42,80.266-91.526,145.22-195.98,191.8-308.44,46.586-112.47,74.52-232.26,82.482-353.73,7.9614-121.47-4.0952-243.87-35.604-361.45-31.5-117.73-82.3-229.76-150-330.96-67.6-101.21-151.7-190.97-248.3-265.06-96.5-74.09-205-132.06-320.3-171.18-115.3-39.119-236.6-59.152-358.3-59.152z"/>
</svg>
