<!-- Created with Inkscape (http://www.inkscape.org/) -->
<svg xmlns:rdf="http://www.w3.org/1999/02/22-rdf-syntax-ns#" xmlns="http://www.w3.org/2000/svg" height="60.004" width="262.73" version="1.1" xmlns:cc="http://creativecommons.org/ns#" xmlns:dc="http://purl.org/dc/elements/1.1/" viewBox="2600 0 8694.8211 2173.2384">
 <title>Logo De Jonge Onderzoekers Amersfoort</title>
 <path style="direction:ltr;enable-background:accumulate;baseline-shift:baseline;block-progression:tb;text-indent:0;color:#000000;text-transform:none;text-align:start;" fill="#ffffff" d="m3288.3,0.1308c-121.73,0-243.08,20.033-358.36,59.152-115.27,39.119-223.76,97.087-320.34,171.18-96.581,74.091-180.67,163.85-248.3,265.06-67.636,101.21-118.4,213.24-149.91,330.82-31.509,117.58-43.566,239.98-35.604,361.45,7.9614,121.47,35.896,241.26,82.482,353.73s111.54,216.92,191.8,308.44c80.266,91.526,175.35,169.55,280.78,230.42l3.2208,1.8582,3.3136,1.662c90.71,45.355,174.38,75.624,256.83,85.93,82.447,10.306,167.83-2.0166,237.72-47.445,139.78-90.857,180.24-264.21,180.24-479.62v-991.02a123.89,123.89,0,1,0,-247.76,0v991.02c0,181-42.124,255.4-67.513,271.9-12.695,8.2516-30.542,14.511-71.973,9.332-40.785-5.098-100.42-23.898-173.3-59.998-80.587-46.98-153.79-107.27-215.29-177.39-62.289-71.027-113.03-152.63-149.18-239.91-36.152-87.279-57.97-180.86-64.148-275.12-6.178-94.264,3.236-189.88,27.687-281.12,24.451-91.241,64.116-178.75,116.6-257.28,52.484-78.534,118.17-148.65,193.12-206.14,74.948-57.496,159.69-102.78,249.15-133.14,89.459-30.359,184.26-46.01,278.73-46.01,94.474,0,189.28,15.651,278.74,46.01,89.459,30.359,174.2,75.641,249.15,133.14,74.948,57.496,140.63,127.61,193.11,206.14,52.484,78.534,92.149,166.04,116.6,257.28,24.451,91.241,33.865,186.86,27.686,281.12-6.178,94.264-27.995,187.84-64.148,275.12-36.153,87.279-86.89,168.88-149.18,239.91-62.289,71.027-136.57,131.98-218.39,179.22a123.89,123.89,0,1,0,123.88,214.56c105.43-60.868,200.51-138.9,280.78-230.42,80.266-91.526,145.22-195.98,191.8-308.44,46.586-112.47,74.52-232.26,82.482-353.73,7.9614-121.47-4.0952-243.87-35.604-361.45-31.5-117.73-82.3-229.76-150-330.96-67.6-101.21-151.7-190.97-248.3-265.06-96.5-74.09-205-132.06-320.3-171.18-115.2-39.217-236.5-59.25-358.2-59.25z"/>
 <g font-size="1800px" font-family="VAG Rounded Std Thin" transform="matrix(0.33034026,0,0,0.33034026,1999.8973,-207.1371)" font-weight="600" fill="#ffffff">
  <path d="m8089.1,3651.5c0,112.86,91.081,148.5,156.42,148.5h344.52c407.88,0,677.16-269.28,677.16-685.08,0-439.56-253.44-724.68-696.96-724.68h-328.68c-89.1,0-152.46,61.38-152.46,152.46v1108.8m297-988.03,180.18,0c273.24,0,392.04,184.14,392.04,437.58,0,237.6-116.82,425.7-372.24,425.7h-199.9v-863.28"/>
  <path fill="#ffffff" d="m9403.6,3665c0,81,59.4,135,138.6,135h464.4c84.6,0,127.8-63,127.8-124.2,0-63-41.4-124.2-127.8-124.2h-333v-273.6h295.2c86.4,0,131.4-63,131.4-124.2,0-63-43.2-124.2-131.4-124.2h-295.2v-262.8h316.8c84.6,0,127.8-63,127.8-124.2,0-63-41.4-124.2-127.8-124.2h-447.2c-95.4,0-140.4,66.6-140.4,156.6v990"/>
  <path d="m11366,2532.8c0-99-63.36-154.44-148.5-154.44s-148.5,55.44-148.5,154.44v851.4c0,63.36,0,166.32-110.88,166.32-89.1,0-158.4-73.26-237.6-73.26-65.341,0-110.88,67.32-110.88,120.78,0,172.26,227.7,225.72,364.32,225.72,180.18,0,392.04-87.121,392.04-419.76v-871.2"/>
  <path fill="#ffffff" d="m12092,3573.2c-228.6,0-338.4-194.4-338.4-414,0-217.8,113.4-414,338.4-414s338.4,196.2,338.4,414c0,219.6-109.8,414-338.4,414m0,248.4c369,0,619.2-289.8,619.2-662.4,0-365.4-257.4-662.4-619.2-662.4-367.2,0-619.2,288-619.2,662.4,0,372.6,253.8,662.4,619.2,662.4"/>
  <path fill="#ffffff" d="m12813,3670.4c0,90,57.6,140.4,135,140.4s135-50.4,135-140.4v-671.4h3.6l570.6,752.4c25.2,32.4,79.2,59.4,113.4,59.4,77.4,0,135-50.4,135-140.4v-1022.4c0-90-57.6-140.4-135-140.4s-135,50.4-135,140.4v680.4h-3.6l-571-761.4c-23.4-32.4-79.2-59.4-113.4-59.4-77.4,0-135,50.4-135,140.4v1022.4"/>
  <path fill="#ffffff" d="m14749,3040.4c-68.4,0-126,46.8-126,122.4,0,73.8,52.2,126,126,126h183.6c0,205.2-163.8,284.4-306,284.4-228.6,0-338.4-194.4-338.4-414,0-217.8,113.4-414,338.4-414,235.8,0,261,131.4,383.4,131.4,63,0,111.6-48.6,111.6-126,0-126-223.2-253.8-495-253.8-367.2,0-619.2,288-619.2,662.4,0,372.6,253.8,662.4,619.2,662.4,360,0,586.8-261,586.8-608.4,0-115.2-45-172.8-158.4-172.8h-306"/>
  <path fill="#ffffff" d="m15323,3665c0,81,59.4,135,138.6,135h464.4c84.6,0,127.8-63,127.8-124.2,0-63-41.4-124.2-127.8-124.2h-333v-273.6h295.2c86.4,0,131.4-63,131.4-124.2,0-63-43.2-124.2-131.4-124.2h-295v-262.8h316.8c84.6,0,127.8-63,127.8-124.2,0-63-41.4-124.2-127.8-124.2h-446.4c-95.4,0-140.4,66.6-140.4,156.6v990"/>
  <path d="m17272,3550.5c-251.46,0-372.24-213.84-372.24-455.4,0-239.58,124.74-455.4,372.24-455.4s372.24,215.82,372.24,455.4c0,241.56-120.78,455.4-372.24,455.4m0,273.24c405.9,0,681.12-318.78,681.12-728.64,0-401.94-283.14-728.64-681.12-728.64-403.92,0-681.12,316.8-681.12,728.64,0,409.86,279.18,728.64,681.12,728.64"/>
  <path fill="#ffffff" d="m18058,3670.4c0,90,57.6,140.4,135,140.4s135-50.4,135-140.4v-671.4h3.6l570.6,752.4c25.2,32.4,79.2,59.4,113.4,59.4,77.4,0,135-50.4,135-140.4v-1022.4c0-90-57.6-140.4-135-140.4s-135,50.4-135,140.4v680.4h-3.6l-571-761.4c-23.4-32.4-79.2-59.4-113.4-59.4-77.4,0-135,50.4-135,140.4v1022.4"/>
  <path fill="#ffffff" d="m19303,3665c0,102.6,82.8,135,142.2,135h313.2c370.8,0,615.6-244.8,615.6-622.8,0-399.6-230.4-658.8-633.6-658.8h-298.8c-81,0-138.6,55.8-138.6,138.6v1008m270-898.2,163.8,0c248.4,0,356.4,167.4,356.4,397.8,0,216-106.2,387-338.4,387h-181v-784.8"/>
  <path fill="#ffffff" d="m20505,3665c0,81,59.4,135,138.6,135h464.4c84.6,0,127.8-63,127.8-124.2,0-63-41.4-124.2-127.8-124.2h-333v-273.6h295.2c86.4,0,131.4-63,131.4-124.2,0-63-43.2-124.2-131.4-124.2h-295v-262.8h316.8c84.6,0,127.8-63,127.8-124.2,0-63-41.4-124.2-127.8-124.2h-446.4c-95.4,0-140.4,66.6-140.4,156.6v990"/>
  <path fill="#ffffff" d="m21338,3670.4c0,90,57.6,140.4,135,140.4s135-50.4,135-140.4v-390.6h3.6l399.6,484.2c28.8,34.2,72,46.8,104.4,46.8,79.2,0,135-68.4,135-138.6,0-25.2-10.8-52.2-36-79.2l-306-327.6c183.6-28.8,333-142.2,333-340.2,0-282.6-171-406.8-448.2-406.8h-316.8c-90,0-138.6,54-138.6,140.4v1011.6m270-903.6,185.4,0c99,0,167.4,55.8,167.4,158.4,0,100.8-68.4,160.2-167.4,160.2h-185v-318.6"/>
  <path fill="#ffffff" d="m22636,3562.4,576-799.2c23.4-30.6,39.6-75.6,39.6-115.2,0-63-46.801-129.6-151.2-129.6h-658.8c-68.4,0-126,54-126,122.4,0,73.8,54,115.2,126,115.2h473.4l-579.6,810c-23.4,32.4-36,68.4-36,104.4,0,75.6,55.8,129.6,151.2,129.6h707.4c64.799,0,129.6-50.4,129.6-118.8,0-77.4-54.001-118.8-129.6-118.8h-522"/>
  <path fill="#ffffff" d="m23978,3573.2c-228.6,0-338.4-194.4-338.4-414,0-217.8,113.4-414,338.4-414s338.4,196.2,338.4,414c0,219.6-109.8,414-338.4,414m0,248.4c369,0,619.2-289.8,619.2-662.4,0-365.4-257.4-662.4-619.2-662.4-367.2,0-619.2,288-619.2,662.4,0,372.6,253.8,662.4,619.2,662.4"/>
  <path fill="#ffffff" d="m24710,3665c0,81,59.4,135,138.6,135h464.4c84.6,0,127.8-63,127.8-124.2,0-63-41.4-124.2-127.8-124.2h-333v-273.6h295.2c86.4,0,131.4-63,131.4-124.2,0-63-43.2-124.2-131.4-124.2h-295v-262.8h316.8c84.6,0,127.8-63,127.8-124.2,0-63-41.4-124.2-127.8-124.2h-446.4c-95.4,0-140.4,66.6-140.4,156.6v990"/>
  <path fill="#ffffff" d="m25543,3681.2c0,79.2,57.6,129.6,135,129.6,81,0,135-59.4,135-129.6v-459l466.2,504c50.4,54,84.6,84.6,136.8,84.6,73.8,0,140.4-39.6,140.4-124.2,0-54-32.4-93.6-75.6-136.8l-415-433.8,340.2-334.8c59.4-59.4,88.2-97.2,88.2-144,0-77.4-64.8-129.6-133.2-129.6-50.4,0-84.6,28.8-104.4,50.4l-442.8,471.6v-388.8c0-82.8-57.6-133.2-135-133.2-81,0-135,59.4-135,133.2v1040.4"/>
  <path fill="#ffffff" d="m26644,3665c0,81,59.4,135,138.6,135h464.4c84.599,0,127.8-63,127.8-124.2,0-63-41.401-124.2-127.8-124.2h-333v-273.6h295.2c86.399,0,131.4-63,131.4-124.2,0-63-43.201-124.2-131.4-124.2h-295v-262.8h316.8c84.599,0,127.8-63,127.8-124.2,0-63-41.401-124.2-127.8-124.2h-446.4c-95.4,0-140.4,66.6-140.4,156.6v990"/>
  <path fill="#ffffff" d="m27477,3670.4c0,90,57.6,140.4,135,140.4s135-50.4,135-140.4v-390.6h3.6l399.6,484.2c28.8,34.2,72,46.8,104.4,46.8,79.2,0,135-68.4,135-138.6,0-25.2-10.8-52.2-36-79.2l-306-327.6c183.6-28.8,333-142.2,333-340.2,0-282.6-171-406.8-448.2-406.8h-316.8c-90,0-138.6,54-138.6,140.4v1011.6m270-903.6,185.4,0c99,0,167.4,55.8,167.4,158.4,0,100.8-68.4,160.2-167.4,160.2h-185v-318.6"/>
  <path fill="#ffffff" d="m28884,2496.8c-239.4,0-446.4,156.6-446.4,408.6,0,417.6,601.2,289.8,601.2,502.2,0,88.2-64.8,154.8-183.6,154.8-117,0-217.8-70.2-302.4-70.2-73.8,0-120.6,57.6-120.6,127.8,0,169.2,298.8,201.6,437.4,201.6,248.4,0,460.8-160.2,460.8-417.6,0-464.4-601.2-345.6-601.2-531,0-75.6,70.2-117,147.6-117,108,0,165.6,54,239.4,54s120.6-63,120.6-133.2c0-142.2-252-180-352.8-180"/>
 </g>
 <g font-size="1800px" font-family="VAG Rounded Std Thin" transform="matrix(0.33034026,0,0,0.33034026,1999.8973,-207.1371)" font-weight="600" fill="#ffffff">
  <path d="m8017.8,5407.9c-3.96,9.9001-13.86,33.66-13.86,65.34,0,79.2,67.32,138.6,146.52,138.6,81.18,0,122.76-43.56,142.56-104.94l59.4-184.14h550.44l59.4,186.12c19.8,59.4,61.38,102.96,144.54,102.96,73.26,0,136.62-53.46,136.62-130.68,0-13.86-3.96-41.58-15.84-73.26l-388-1077.1c-33.66-95.04-106.92-164.34-211.86-164.34-100.98,0-178.2,73.26-211.86,164.34l-397.98,1077.1m607.86-932.59,3.96,0,184.14,574.2-376.2,0,188.1-574.2"/>
  <path fill="#ffffff" d="m9294.1,5450.6c-1.8,10.8-1.8,21.6-1.8,30.6,0,79.2,57.6,129.6,129.6,129.6,91.8,0,127.8-41.4,140.4-126l106.2-732.6h3.6l216,754.2c12.6,43.2,46.8,104.4,144,104.4,97.199,0,131.4-61.2,144-104.4l216-754.2h3.6l106.2,732.6c12.6,84.6,48.6,126,140.4,126,71.999,0,129.6-50.4,129.6-129.6,0-9,0-19.8-1.8-30.6l-167.4-1004.4c-10.8-64.8-81.001-138.6-176.4-138.6-90,0-160.2,64.8-180,129.6l-212.4,712.8h-3.6l-212.4-712.8c-19.8-64.8-90-129.6-180-129.6-95.4,0-165.6,73.8-176.4,138.6l-167.4,1004.4"/>
  <path fill="#ffffff" d="m10895,5465c0,81,59.4,135,138.6,135h464.4c84.599,0,127.8-63,127.8-124.2,0-63-41.401-124.2-127.8-124.2h-333v-273.6h295.2c86.399,0,131.4-63,131.4-124.2,0-63-43.201-124.2-131.4-124.2h-295v-262.8h316.8c84.599,0,127.8-63,127.8-124.2,0-63-41.401-124.2-127.8-124.2h-446.4c-95.4,0-140.4,66.6-140.4,156.6v990"/>
  <path fill="#ffffff" d="m11728,5470.4c0,90,57.6,140.4,135,140.4s135-50.4,135-140.4v-390.6h3.6l399.6,484.2c28.8,34.2,72,46.8,104.4,46.8,79.2,0,135-68.4,135-138.6,0-25.2-10.8-52.2-36-79.2l-306-327.6c183.6-28.8,333-142.2,333-340.2,0-282.6-171-406.8-448.2-406.8h-316.8c-90,0-138.6,54-138.6,140.4v1011.6m270-903.6,185.4,0c99,0,167.4,55.8,167.4,158.4,0,100.8-68.4,160.2-167.4,160.2h-185v-318.6"/>
  <path fill="#ffffff" d="m13135,4296.8c-239.4,0-446.4,156.6-446.4,408.6,0,417.6,601.2,289.8,601.2,502.2,0,88.2-64.8,154.8-183.6,154.8-117,0-217.8-70.2-302.4-70.2-73.8,0-120.6,57.6-120.6,127.8,0,169.2,298.8,201.6,437.4,201.6,248.4,0,460.8-160.2,460.8-417.6,0-464.4-601.2-345.6-601.2-531,0-75.6,70.2-117,147.6-117,108,0,165.6,54,239.4,54s120.6-63,120.6-133.2c0-142.2-252-180-352.8-180"/>
  <path fill="#ffffff" d="m13697,5470.4c0,90,57.6,140.4,135,140.4s135-50.4,135-140.4v-392.4h279c86.4,0,129.6-63,129.6-126,0-61.2-43.2-122.4-129.6-122.4h-279v-262.8h331.2c81,0,120.6-63,120.6-124.2,0-63-41.4-124.2-120.6-124.2h-460.8c-90,0-140.4,66.6-140.4,140.4v1011.6"/>
  <path fill="#ffffff" d="m15063,5373.2c-228.6,0-338.4-194.4-338.4-414,0-217.8,113.4-414,338.4-414s338.4,196.2,338.4,414c0,219.6-109.8,414-338.4,414m0,248.4c369,0,619.2-289.8,619.2-662.4,0-365.4-257.4-662.4-619.2-662.4-367.2,0-619.2,288-619.2,662.4,0,372.6,253.8,662.4,619.2,662.4"/>
  <path fill="#ffffff" d="m16364,5373.2c-228.6,0-338.4-194.4-338.4-414,0-217.8,113.4-414,338.4-414s338.4,196.2,338.4,414c0,219.6-109.8,414-338.4,414m0,248.4c369,0,619.2-289.8,619.2-662.4,0-365.4-257.4-662.4-619.2-662.4-367.2,0-619.2,288-619.2,662.4,0,372.6,253.8,662.4,619.2,662.4"/>
  <path fill="#ffffff" d="m17096,5470.4c0,90,57.6,140.4,135,140.4s135-50.4,135-140.4v-390.6h3.6l399.6,484.2c28.8,34.2,72,46.8,104.4,46.8,79.2,0,135-68.4,135-138.6,0-25.2-10.8-52.2-36-79.2l-306-327.6c183.6-28.8,333-142.2,333-340.2,0-282.6-171-406.8-448.2-406.8h-316.8c-90,0-138.6,54-138.6,140.4v1011.6m270-903.6,185.4,0c99,0,167.4,55.8,167.4,158.4,0,100.8-68.4,160.2-167.4,160.2h-185v-318.6"/>
  <path fill="#ffffff" d="m18282,5470.4c0,90,57.6,140.4,135,140.4,77.399,0,135-50.4,135-140.4v-903.6h196.2c86.399,0,122.4-63,122.4-124.2,0-63-45.001-124.2-122.4-124.2h-662.4c-77.4,0-122.4,61.2-122.4,124.2,0,61.2,36,124.2,122.4,124.2h196.2v903.6"/>
 </g>
</svg>
