<?xml version="1.0" standalone="no"?>
<!DOCTYPE svg PUBLIC "-//W3C//DTD SVG 20010904//EN"
 "http://www.w3.org/TR/2001/REC-SVG-20010904/DTD/svg10.dtd">
<svg version="1.0" xmlns="http://www.w3.org/2000/svg"
 width="1024.000000pt" height="1024.000000pt" viewBox="0 0 1024.000000 1024.000000"
 preserveAspectRatio="xMidYMid meet">
<metadata>
Created by potrace 1.11, written by Peter Selinger 2001-2013
</metadata>
<g transform="translate(0.000000,1024.000000) scale(0.100000,-0.100000)"
fill="#000000" stroke="none">
<path d="M4934 10069 c-1643 -61 -3155 -910 -4057 -2280 -472 -718 -745 -1508
-822 -2379 -19 -212 -19 -616 0 -838 131 -1544 943 -2929 2220 -3791 220 -148
310 -200 476 -277 296 -136 501 -210 744 -269 320 -78 646 -87 920 -26 278 63
551 226 746 446 235 266 390 630 463 1085 53 324 49 155 53 2909 3 2324 2
2559 -13 2610 -28 97 -73 172 -148 247 -114 114 -237 165 -396 165 -244 0
-440 -140 -539 -385 -15 -38 -16 -252 -22 -2506 -5 -2200 -7 -2480 -22 -2608
-54 -472 -165 -763 -319 -843 -167 -86 -570 -1 -1021 216 -179 86 -444 269
-662 455 -121 104 -382 373 -477 490 -480 596 -765 1268 -865 2035 -28 218
-25 752 5 968 81 576 256 1076 540 1544 648 1068 1761 1769 3001 1888 197 19
564 19 762 0 1372 -131 2578 -972 3177 -2215 166 -343 274 -678 336 -1042 45
-261 51 -337 51 -688 -1 -293 -3 -355 -23 -495 -77 -541 -233 -1004 -490
-1455 -176 -309 -369 -560 -635 -828 -235 -236 -473 -424 -758 -597 -201 -122
-292 -231 -333 -396 -91 -367 203 -719 582 -697 140 9 230 51 517 241 1209
804 2017 2077 2225 3504 74 511 67 1082 -20 1591 -275 1615 -1319 3003 -2795
3718 -616 298 -1327 479 -1964 500 -86 2 -176 6 -201 7 -25 2 -131 0 -236 -4z"/>
</g>
</svg>
